HIERARCHY
ROOT Hips
{
	OFFSET 62.890800 8.863803 43.568401
	CHANNELS 6 Xposition Yposition Zposition Zrotation Xrotation Yrotation
	JOINT Chest
	{
		OFFSET -0.160400 1.630001 7.806301
		CHANNELS 6 Xposition Yposition Zposition Zrotation Xrotation Yrotation
		JOINT Chest2
		{
			OFFSET 0.000000 0.000000 3.197998
			CHANNELS 6 Xposition Yposition Zposition Zrotation Xrotation Yrotation
			JOINT Neck
			{
				OFFSET 0.000000 0.000001 7.440701
				CHANNELS 6 Xposition Yposition Zposition Zrotation Xrotation Yrotation
				JOINT Head
				{
					OFFSET 0.000000 0.000000 2.173901
					CHANNELS 6 Xposition Yposition Zposition Zrotation Xrotation Yrotation
					End Site
					{
						OFFSET 0.000000 0.000001 10.420303
					}
				}
			}
			JOINT LeftCollar
			{
				OFFSET 2.426399 -1.880099 4.759399
				CHANNELS 6 Xposition Yposition Zposition Zrotation Xrotation Yrotation
				JOINT LeftShoulder
				{
					OFFSET 4.420197 0.000000 0.000000
					CHANNELS 6 Xposition Yposition Zposition Zrotation Xrotation Yrotation
					JOINT LeftElbow
					{
						OFFSET 0.000000 -0.000001 -10.347099
						CHANNELS 6 Xposition Yposition Zposition Zrotation Xrotation Yrotation
						JOINT LeftWrist
						{
							OFFSET 0.000000 -0.000001 -12.496300
							CHANNELS 6 Xposition Yposition Zposition Zrotation Xrotation Yrotation
							End Site
							{
								OFFSET 0.000000 0.000000 -2.173901
							}
						}
					}
				}
			}
			JOINT RightCollar
			{
				OFFSET -2.781502 -1.903799 5.072601
				CHANNELS 6 Xposition Yposition Zposition Zrotation Xrotation Yrotation
				JOINT RightShoulder
				{
					OFFSET -4.012100 0.000000 0.000000
					CHANNELS 6 Xposition Yposition Zposition Zrotation Xrotation Yrotation
					JOINT RightElbow
					{
						OFFSET 0.000000 -0.000001 -10.346600
						CHANNELS 6 Xposition Yposition Zposition Zrotation Xrotation Yrotation
						JOINT RightWrist
						{
							OFFSET 0.000000 -0.000001 -12.562599
							CHANNELS 6 Xposition Yposition Zposition Zrotation Xrotation Yrotation
							End Site
							{
								OFFSET 0.000000 0.000000 -2.173901
							}
						}
					}
				}
			}
		}
	}
	JOINT LeftHip
	{
		OFFSET 2.047997 -0.047200 -2.693199
		CHANNELS 6 Xposition Yposition Zposition Zrotation Xrotation Yrotation
		JOINT LeftKnee
		{
			OFFSET 0.000000 -0.000001 -18.824400
			CHANNELS 6 Xposition Yposition Zposition Zrotation Xrotation Yrotation
			JOINT LeftAnkle
			{
				OFFSET 0.000000 -0.000002 -19.078199
				CHANNELS 6 Xposition Yposition Zposition Zrotation Xrotation Yrotation
				End Site
				{
					OFFSET 0.000000 -9.342100 0.000001
				}
			}
		}
	}
	JOINT RightHip
	{
		OFFSET -2.129898 -0.022300 -2.538300
		CHANNELS 6 Xposition Yposition Zposition Zrotation Xrotation Yrotation
		JOINT RightKnee
		{
			OFFSET 0.000000 -0.000001 -18.644600
			CHANNELS 6 Xposition Yposition Zposition Zrotation Xrotation Yrotation
			JOINT RightAnkle
			{
				OFFSET 0.000000 -0.000002 -18.801399
				CHANNELS 6 Xposition Yposition Zposition Zrotation Xrotation Yrotation
				End Site
				{
					OFFSET 0.000000 -8.914600 0.000001
				}
			}
		}
	}
}
MOTION
Frames: 10
Frame Time: 0.041667
68.605888 -45.677895 39.410244 -207.863570 11.147713 14.433954 -0.160405 1.629997 7.806305 -11.691661 13.813101 -14.793375 0.000006 0.000003 3.198004 2.751537 -7.252443 0.200641 -0.000008 0.000003 7.440712 4.815585 3.045863 -0.351578 -0.000017 0.000005 2.173903 3.675014 -3.629384 4.800633 2.426401 -1.880098 4.759408 -183.459031 171.237897 -186.444931 4.420207 -0.000006 -0.000000 -3.986499 -1.569124 -107.005732 -0.000004 0.000006 -10.347098 633.124768 -197.481997 -51.021960 0.000001 -0.000004 -12.496309 255.516612 41.736824 21.538551 -2.781500 -1.903795 5.072609 -190.226396 -182.560042 166.389596 -4.012105 0.000005 -0.000007 0.738667 -16.706088 469.269513 -0.000003 0.000002 -10.346613 -69.072583 -5.135026 -5.922453 -0.000001 0.000006 -12.562593 1213.840018 -187.467219 108.468281 2.047997 -0.047204 -2.693200 374.574268 -21.144509 11.633197 0.000007 0.000006 -18.824404 132.341349 132.580597 -146.610475 0.000002 0.000003 -19.078201 -341.150327 -15.663649 15.600492 -2.129906 -0.022306 -2.538302 -447.811900 -33.576028 -41.129900 -0.000005 -0.000008 -18.644606 186.254437 136.041987 203.371533 -0.000005 -0.000004 -18.801399 43.139768 22.854370 10.436561
69.620995 -44.145596 39.569149 -206.309771 11.190690 14.543525 -0.160400 1.629998 7.806308 -11.891160 13.871830 -14.735573 0.000007 -0.000004 3.198004 2.915781 -7.224202 0.203677 0.000003 0.000008 7.440701 4.059272 3.393722 -0.560727 -0.000004 0.000001 2.173906 3.257999 -3.574260 4.668475 2.426410 -1.880098 4.759390 -183.625401 171.135389 -186.301524 4.420192 0.000002 0.000003 -3.853098 -1.740806 -107.334845 -0.000002 -0.000002 -10.347092 632.971662 -197.752732 -51.096987 0.000002 0.000005 -12.496305 255.593547 41.896172 21.580584 -2.781494 -1.903802 5.072602 -189.998350 -182.806420 165.793744 -4.012101 -0.000003 -0.000002 0.889040 -17.005633 469.490811 0.000001 -0.000001 -10.346608 -64.258789 -5.313360 -4.979469 -0.000004 -0.000000 -12.562588 1216.904533 -187.619764 109.279523 2.048000 -0.047200 -2.693191 373.222081 -20.012186 9.970661 0.000000 0.000003 -18.824402 130.994682 131.661062 -144.411373 0.000003 -0.000005 -19.078201 -341.053366 -12.795222 16.672734 -2.129893 -0.022304 -2.538295 -445.650528 -33.599712 -39.581168 -0.000003 -0.000001 -18.644596 177.640803 142.485942 202.857670 -0.000001 -0.000008 -18.801399 53.703585 23.013551 6.856333
70.535103 -42.730595 39.711449 -204.508295 11.406620 14.562069 -0.160404 1.629998 7.806299 -12.386627 13.842694 -14.676311 0.000018 0.000007 3.197999 3.037362 -7.206834 0.207636 0.000008 -0.000004 7.440704 3.367006 3.682394 -0.723202 -0.000014 0.000006 2.173904 2.869879 -3.533702 4.475722 2.426416 -1.880101 4.759399 -183.724371 171.014386 -186.317206 4.420206 0.000002 -0.000002 -3.690947 -1.947380 -107.486926 0.000001 0.000000 -10.347096 632.851341 -198.069721 -51.172587 0.000003 -0.000001 -12.496302 255.800256 42.079306 21.504140 -2.781488 -1.903800 5.072606 -189.775782 -183.040983 165.225582 -4.012105 0.000006 -0.000004 0.982821 -17.295528 469.947942 0.000005 0.000002 -10.346597 -57.787410 -4.910556 -3.659186 -0.000010 -0.000000 -12.562602 1218.192543 -187.445526 108.776684 2.047998 -0.047200 -2.693200 374.222267 -19.343258 9.399917 0.000009 0.000009 -18.824398 126.709927 130.330473 -141.486180 -0.000016 -0.000007 -19.078205 -340.982141 -9.317554 17.770226 -2.129900 -0.022289 -2.538305 -443.754440 -33.629645 -38.101930 0.000003 -0.000009 -18.644604 172.322818 146.379505 201.415776 0.000003 0.000001 -18.801399 61.825732 22.866370 1.612321
71.351700 -41.440292 39.830048 -203.143008 11.507074 14.570585 -0.160404 1.630004 7.806309 -12.452992 13.798093 -14.536864 -0.000003 -0.000002 3.198009 3.097787 -7.182974 0.207878 -0.000015 -0.000004 7.440697 2.733662 3.918102 -0.827832 -0.000014 0.000002 2.173903 2.550121 -3.525027 4.216524 2.426377 -1.880105 4.759395 -183.846508 170.855584 -186.195301 4.420192 0.000001 -0.000005 -3.447173 -2.151636 -107.748447 -0.000004 0.000006 -10.347095 632.803803 -198.387571 -51.265416 -0.000008 -0.000008 -12.496298 256.098872 42.272792 21.369203 -2.781518 -1.903807 5.072603 -189.574305 -183.235069 164.713468 -4.012100 -0.000000 -0.000004 0.894867 -17.592872 470.033784 -0.000000 0.000000 -10.346598 -48.577176 -4.371006 -2.004503 -0.000006 -0.000000 -12.562587 1217.053923 -187.715346 108.538980 2.047996 -0.047200 -2.693193 372.823854 -19.510201 8.107519 0.000008 0.000003 -18.824400 124.736876 128.922703 -138.063627 0.000001 0.000002 -19.078194 -340.890479 -5.483166 18.909257 -2.129889 -0.022293 -2.538287 -441.465179 -33.713049 -36.711270 -0.000006 0.000004 -18.644596 169.334009 148.430283 200.187230 0.000000 0.000009 -18.801399 66.717151 22.674485 -1.341790
72.074402 -40.280098 39.920040 -201.875667 11.640022 14.526025 -0.160393 1.630001 7.806306 -12.504306 13.697589 -14.348190 -0.000001 -0.000000 3.198008 3.149441 -7.150875 0.222719 0.000001 0.000001 7.440701 2.205791 4.096122 -0.931994 -0.000006 0.000006 2.173913 2.264768 -3.559155 3.933080 2.426410 -1.880105 4.759400 -183.909086 170.744539 -186.140700 4.420194 -0.000001 -0.000005 -3.205160 -2.307275 -107.932985 -0.000003 0.000000 -10.347095 632.779433 -198.715721 -51.331873 0.000000 -0.000017 -12.496296 256.406203 42.494213 21.256047 -2.781509 -1.903805 5.072612 -189.426786 -183.390456 164.314967 -4.012107 0.000002 -0.000003 -0.792779 -14.172050 469.378523 -0.000007 -0.000002 -10.346587 -39.219230 -3.427603 -0.166304 0.000009 -0.000009 -12.562585 1212.068978 -187.032545 108.252693 2.048007 -0.047197 -2.693200 371.578656 -20.215062 7.026780 -0.000005 -0.000002 -18.824396 122.155625 127.463105 -133.918481 0.000001 -0.000002 -19.078192 -340.808463 -1.551876 19.888821 -2.129893 -0.022296 -2.538297 -439.358175 -33.800912 -35.634091 -0.000001 -0.000004 -18.644592 168.288498 149.160349 199.531860 0.000009 0.000013 -18.801401 69.011569 22.811497 -2.766938
72.704102 -39.253399 39.982040 -201.156776 11.623234 14.504369 -0.160391 1.629999 7.806307 -12.059548 13.636378 -14.047220 0.000009 0.000005 3.197999 3.184143 -7.148396 0.222434 -0.000001 0.000008 7.440697 1.727720 4.212588 -1.022199 -0.000012 -0.000005 2.173915 2.052648 -3.629083 3.612238 2.426404 -1.880099 4.759399 -183.908581 170.664871 -186.146137 4.420189 0.000005 -0.000002 -2.956510 -2.320853 -108.064391 -0.000004 -0.000006 -10.347101 633.020512 -198.921910 -51.396965 -0.000003 -0.000011 -12.496302 256.711868 42.779961 21.186847 -2.781503 -1.903793 5.072603 -189.358771 -183.499466 164.002910 -4.012096 0.000003 -0.000013 -2.351747 -11.104834 468.603324 0.000002 0.000000 -10.346598 -24.453274 -1.714487 1.399694 0.000001 0.000001 -12.562602 1201.654414 -186.350264 108.120692 2.048013 -0.047206 -2.693197 373.956873 -21.170173 7.228782 -0.000008 0.000006 -18.824402 115.956217 126.011813 -128.843486 -0.000007 0.000004 -19.078199 -340.786770 2.078679 20.779123 -2.129891 -0.022301 -2.538294 -436.896657 -33.946009 -34.757190 -0.000002 -0.000003 -18.644596 168.828903 148.862006 199.415064 0.000005 -0.000001 -18.801399 69.151629 23.241570 -2.708860
73.041199 -38.696793 39.998642 -200.398365 11.714647 14.445276 -0.160407 1.629998 7.806298 -12.125782 13.631828 -13.888005 -0.000001 0.000002 3.197999 3.202920 -7.172542 0.223246 -0.000016 0.000006 7.440703 1.465265 4.227320 -1.044055 0.000001 0.000003 2.173914 2.001093 -3.692274 3.383215 2.426396 -1.880096 4.759404 -183.847382 170.657631 -186.126931 4.420173 -0.000006 -0.000006 -2.830986 -2.284732 -108.170450 0.000001 -0.000007 -10.347098 633.285086 -198.974940 -51.422572 0.000002 0.000005 -12.496294 256.863252 43.023300 21.162416 -2.781507 -1.903797 5.072614 -189.375956 -183.550160 163.843479 -4.012107 0.000009 -0.000000 -3.884149 -7.671706 467.788072 -0.000001 0.000003 -10.346589 -10.943658 -0.446748 1.722313 -0.000005 0.000003 -12.562593 1185.304144 -187.773594 109.340100 2.047998 -0.047200 -2.693196 374.952414 -22.066198 7.366060 -0.000007 0.000005 -18.824398 112.109755 125.257842 -125.448104 0.000009 0.000008 -19.078203 -340.943318 3.856776 21.115470 -2.129899 -0.022298 -2.538298 -435.886499 -34.010538 -34.383910 0.000003 0.000010 -18.644598 170.035142 148.157281 199.622469 -0.000000 0.000006 -18.801399 68.061373 23.648762 -1.908610
73.646400 -37.678402 40.001240 -198.780348 11.910499 14.401015 -0.160398 1.630001 7.806306 -12.281291 13.767903 -13.689820 -0.000002 -0.000001 3.198005 3.226322 -7.278255 0.227356 -0.000008 0.000001 7.440700 0.997870 4.100589 -1.043195 -0.000005 0.000002 2.173907 1.863419 -3.887411 3.380487 2.426402 -1.880103 4.759399 -183.587630 170.731425 -186.056047 4.420196 0.000001 -0.000002 -2.793771 -2.210261 -108.390703 -0.000003 0.000001 -10.347101 633.694515 -199.137744 -51.463508 0.000007 -0.000011 -12.496298 257.080124 43.204713 21.064401 -2.781508 -1.903799 5.072605 -189.546328 -183.601004 163.570231 -4.012106 -0.000003 0.000004 -5.607446 -3.796508 467.087349 -0.000004 -0.000001 -10.346599 -3.885453 0.471659 1.616295 -0.000005 -0.000002 -12.562599 1177.750282 -189.007781 110.746046 2.048003 -0.047198 -2.693192 377.706210 -24.149478 8.039935 0.000009 -0.000003 -18.824402 104.213114 124.120738 -119.110440 -0.000008 0.000008 -19.078197 -341.683492 5.873111 20.690839 -2.129889 -0.022299 -2.538288 -434.469207 -34.048442 -33.818281 0.000005 -0.000001 -18.644609 173.353466 146.058855 200.064519 0.000000 0.000012 -18.801399 64.196955 24.865159 2.116005
74.311295 -36.532204 39.989143 -196.799292 12.181793 14.396854 -0.160404 1.630006 7.806302 -12.389972 13.952901 -13.555606 -0.000007 -0.000007 3.198004 3.217148 -7.417397 0.238969 -0.000004 0.000003 7.440702 0.407881 3.874531 -1.037368 -0.000005 0.000005 2.173905 1.739517 -4.075081 3.337702 2.426401 -1.880098 4.759398 -183.378818 170.745563 -185.832973 4.420202 0.000003 -0.000007 -2.785131 -2.162442 -108.733757 0.000007 -0.000003 -10.347097 634.128478 -199.296123 -51.511620 -0.000009 0.000002 -12.496303 257.733964 43.105457 20.138575 -2.781500 -1.903792 5.072599 -189.860066 -183.595116 163.294237 -4.012105 0.000004 0.000001 -7.131947 -0.347526 466.609127 -0.000008 -0.000001 -10.346601 1.111838 0.965981 1.371929 0.000000 -0.000010 -12.562599 1172.432680 -189.919270 111.873608 2.048000 -0.047194 -2.693197 381.587697 -26.747161 9.492912 0.000001 -0.000001 -18.824398 95.130479 123.403077 -112.441771 -0.000009 -0.000003 -19.078192 -342.662121 6.851612 19.719449 -2.129895 -0.022300 -2.538299 -433.382579 -34.015008 -33.262325 0.000001 -0.000002 -18.644606 179.104403 142.359652 199.455211 -0.000002 -0.000006 -18.801399 57.191926 24.449740 4.910842
75.025497 -35.258801 39.968937 -194.472561 12.532197 14.427550 -0.160401 1.630001 7.806309 -12.543009 14.197878 -13.463812 -0.000003 -0.000006 3.198008 3.240005 -7.440194 0.239145 -0.000024 -0.000004 7.440697 -0.250587 3.448309 -0.994111 -0.000005 0.000002 2.173905 1.643317 -4.286519 3.304670 2.426396 -1.880105 4.759389 -183.103698 170.912261 -185.894212 4.420197 0.000003 0.000005 -2.885195 -2.189406 -108.762723 -0.000011 -0.000004 -10.347111 634.434798 -199.456058 -51.591059 -0.000003 -0.000002 -12.496288 257.737516 42.571025 20.359187 -2.781514 -1.903801 5.072603 -190.236450 -183.494302 163.199365 -4.012097 0.000006 0.000007 -8.372740 2.385548 466.047084 0.000001 -0.000002 -10.346600 3.547574 1.171391 1.232548 -0.000006 -0.000003 -12.562598 1170.311824 -190.238090 112.617197 2.047989 -0.047198 -2.693194 386.609116 -29.749101 11.960240 0.000009 -0.000002 -18.824392 85.859631 123.207023 -106.255218 0.000001 0.000003 -19.078190 -343.671514 7.062985 18.399753 -2.129903 -0.022301 -2.538295 -432.414113 -33.952064 -32.516318 -0.000009 0.000010 -18.644598 187.734142 137.037487 196.715991 0.000003 -0.000005 -18.801397 46.720645 23.473781 10.120731
